<svg class="svg" viewBox="0 0 30 30"><g id="Symbols" stroke="none" stroke-width="1" fill="none" fill-rule="evenodd"><g id="ic_card_green" fill="#7AB72B"><g id="Group-8" transform="translate(1.000000, 4.000000)"><path d="M25.2990412,19.5562706 L3.22829636,19.5562706 C2.62799499,19.5562706 2.04823152,18.9761257 2.04823152,18.3747715 L2.04823152,3.22010969 C2.04823152,2.61875549 2.62799499,2.0386106 3.22829636,2.0386106 L25.3038644,2.0386106 C25.9041657,2.0386106 26.4839292,2.61875549 26.4839292,3.22010969 L26.4839292,18.5002559 C26.4839292,19.0632048 25.9477104,19.5562706 25.2990412,19.5562706 L25.2990412,19.5562706 Z M25.2990412,21.5562706 C27.0165538,21.5562706 28.4839292,20.2069845 28.4839292,18.5002559 L28.4839292,3.22010969 C28.4839292,1.51448034 27.0090298,0.0386106033 25.3038644,0.0386106033 L3.22829636,0.0386106033 C1.52313093,0.0386106033 0.0482315228,1.51448034 0.0482315228,3.22010969 L0.0482315228,18.3747715 C0.0482315228,20.0804008 1.52313093,21.5562706 3.22829636,21.5562706 L25.2990412,21.5562706 L25.2990412,21.5562706 Z" id="Shape" fill="rgba(63,43,183,1)"></path><rect id="Rectangle-path" x="1.55948567" y="7.97404022" width="25.4131894" height="2" fill="rgba(63,43,183,1)"></rect><rect id="Rectangle-path" x="6.30546751" y="14.006947" width="6.28939058" height="2" fill="rgba(63,43,183,1)"></rect></g></g></g></svg>
