<svg height="480pt" viewBox="0 -56 480.25273 480" width="480pt" xmlns="http://www.w3.org/2000/svg"><path d="m115.328125 332.621094c.179687 7.425781-2.667969 14.601562-7.890625 19.882812-5.21875 5.28125-12.363281 8.210938-19.792969 8.117188-12.503906-.128906-23.359375-8.652344-26.453125-20.769532-3.097656-12.117187 2.34375-24.800781 13.253906-30.910156 2.542969-1.367187 5.621094-1.273437 8.082032.238282 4.480468 2.882812 9.199218 5.679687 14.160156 8.480468 4.957031 2.800782 9.757812 5.519532 14.480469 8.082032 2.503906 1.394531 4.085937 4.011718 4.160156 6.878906zm0 0" fill="#a07a2d"/><path d="m406.285156 356.941406v.078125c-13.226562 7.476563-30.003906 2.953125-37.679687-10.160156-2.515625-4.3125-3.789063-9.242187-3.679688-14.238281.074219-2.867188 1.65625-5.484375 4.160157-6.878906 4.71875-2.5625 9.519531-5.203126 14.480468-8.082032 4.960938-2.878906 9.679688-5.597656 14.160156-8.480468 2.457032-1.511719 5.535157-1.605469 8.078126-.238282 4.390624 2.453125 8.039062 6.046875 10.5625 10.398438 3.65625 6.324218 4.644531 13.839844 2.753906 20.890625-1.890625 7.054687-6.507813 13.066406-12.835938 16.710937zm0 0" fill="#a07a2d"/><path d="m208.207031 311.902344c-5.328125 10.996094-1.238281 24.238281 9.359375 30.320312 3.917969 2.246094 5.390625 7.164063 3.359375 11.199219-3.917969 6.71875-12.558593 14.71875-31.757812 14.71875-21.121094 0-50.722657-9.757813-85.601563-28.320313-4.800781-2.558593-9.761718-5.359374-14.878906-8.238281-5.121094-2.882812-10-5.921875-14.640625-8.800781-58.402344-36.558594-84.082031-71.121094-70.480469-94.800781 1.109375-1.84375 2.882813-3.191407 4.960938-3.757813 2.0625-.554687 4.257812-.238281 6.078125.878906 10.5625 6.332032 24.230469 3.355469 31.199219-6.800781l6.960937-9.679687.242187-.320313v-.078125l51.117188-70.480468c3.710938-5.121094 7.976562-9.816407 12.722656-14 .660156-.519532 1.386719-.949219 2.160156-1.28125l62-26.558594c2.46875-1.046875 5.296876-.785156 7.535157.695312 2.234375 1.480469 3.582031 3.980469 3.582031 6.664063v8.878906c1.492188 1.480469 2.328125 3.5 2.320312 5.601563-.011718 1.421874-.367187 2.824218-1.039062 4.078124l-42.078125 72.71875 27.917969-4.476562c3.734375-.589844 7.367187 1.511719 8.71875 5.039062l10.242187 26.558594 27.519531-47.757812c1.894532-3.335938 5.890626-4.851563 9.519532-3.625 3.632812 1.230468 5.878906 4.863281 5.359375 8.664062-.332031 2.679688-.492188 5.378906-.480469 8.078125-.003906 9.542969 2.015625 18.976563 5.921875 27.679688l1.359375 3.042969c.960938 2.078124.960938 4.476562 0 6.558593l-34.238281 76.558594zm0 0" fill="#ffcc5c"/><path d="m406.207031 322.78125c-4.640625 2.878906-9.519531 5.839844-14.640625 8.800781-5.121094 2.957031-10.078125 5.679688-14.800781 8.238281-34.960937 18.5625-64.558594 28.320313-85.679687 28.320313-19.199219 0-27.839844-8-31.757813-14.71875-2.148437-3.765625-.90625-8.554687 2.796875-10.800781 10.871094-5.957032 15.246094-19.332032 10-30.558594l-5.039062-11.203125-35.597657-79.597656c-4.859375-10.761719-7.367187-22.433594-7.363281-34.242188-.039062-3.34375.171875-6.6875.640625-10 .113281-1.117187.4375-2.203125.960937-3.199219l7.359376-12.71875c1.433593-2.484374 4.089843-4.011718 6.960937-4 2.851563-.023437 5.488281 1.507813 6.878906 4l35.039063 60.480469 10.160156-26.480469c1.351562-3.527343 4.988281-5.628906 8.722656-5.039062l28 4.476562-42-72.71875c-1.75-3.078124-1.296875-6.933593 1.117188-9.519531l.160156-9.039062c.003906-2.683594 1.347656-5.183594 3.585938-6.664063 2.238281-1.480468 5.066406-1.742187 7.535156-.695312l62 26.558594c.773437.332031 1.5.761718 2.160156 1.28125 4.742188 4.183593 9.007812 8.878906 12.71875 14l51.121094 70.480468v.078125l.640625.960938 6.480469 8.878906c6.820312 10.175781 20.378906 13.292969 30.960937 7.121094 3.910156-2.226563 8.878906-1.039063 11.359375 2.71875 13.597656 23.679687-12.082031 58.242187-70.480469 94.800781zm0 0" fill="#ffcc5c"/><path d="m197.140625 289.742188c-4.789063-.160157-9.566406.628906-14.054687 2.3125-4.128907 1.769531-8.664063 2.375-13.113282 1.75-2.742187-1.785157-5.109375-4.097657-6.957031-6.800782-3.683594-5.128906-8.476563-9.359375-14.023437-12.375-5.355469-2.023437-11.105469-2.777344-16.800782-2.199218-3.921875.480468-7.902344.050781-11.632812-1.257813-2.722656-2.449219-4.816406-5.519531-6.105469-8.949219-2-5.007812-5.207031-9.4375-9.335937-12.90625-5.222657-3.265625-11.148438-5.246094-17.285157-5.785156-2.761719-.246094-5.464843-.941406-8-2.054688-2.246093-3.347656-3.488281-7.265624-3.578125-11.296874-.328125-4.59375-1.617187-9.070313-3.785156-13.136719-3.148438-4.59375-6.917969-8.738281-11.199219-12.308594-1.046875-.953125-2.34375-2.144531-3.421875-3.203125l-4.847656 6.691406v.078125l-.242188.320313-4.34375 6.046875 2.113282 1.945312c3.171875 2.609375 5.984375 5.621094 8.367187 8.96875.796875 2.222657 1.304688 4.539063 1.503907 6.894531.320312 7.601563 3.253906 14.855469 8.304687 20.542969 4.75 3.765625 10.542969 5.976563 16.589844 6.328125 3.667969.289063 7.238281 1.304688 10.503906 2.992188 1.828125 2.09375 3.300781 4.476562 4.351563 7.050781 2.492187 6.339844 6.8125 11.796875 12.417968 15.671875 6.21875 2.980469 13.148438 4.15625 20 3.390625 3.246094-.332031 6.527344-.089844 9.6875.71875 3.304688 2.117187 6.167969 4.859375 8.425782 8.074219 3.558593 5.203125 8.519531 9.292968 14.3125 11.789062 2.53125.820313 5.175781 1.226563 7.839843 1.210938 5.066407-.214844 10.074219-1.175782 14.863281-2.847656 2.507813-.929688 5.132813-1.507813 7.800782-1.722657 3.597656.367188 7.285156 1.097657 10.863281 1.792969 1.160156.222656 2.335937.457031 3.519531.671875l3.269532-7.28125 3.488281-7.804687c-2.269531-.296876-5.046875-.867188-7.199219-1.28125-3.710938-.738282-7.976562-1.570313-12.296875-2.03125zm0 0" fill="#006837"/><path d="m411.542969 253.019531c5.054687-5.683593 7.992187-12.941406 8.3125-20.542969.199219-2.355468.707031-4.671874 1.503906-6.894531 2.382813-3.347656 5.195313-6.359375 8.367187-8.96875.703126-.648437 1.414063-1.289062 2.113282-1.945312l-3.945313-5.40625-.640625-.960938v-.078125l-4.847656-6.691406c-1.078125 1.082031-2.398438 2.273438-3.425781 3.203125-4.277344 3.570313-8.046875 7.714844-11.199219 12.308594-2.164062 4.066406-3.453125 8.542969-3.78125 13.136719-.089844 4.03125-1.332031 7.953124-3.585938 11.296874-2.535156 1.117188-5.238281 1.8125-8 2.054688-6.136718.539062-12.0625 2.519531-17.289062 5.785156-4.125 3.46875-7.332031 7.898438-9.335938 12.90625-1.285156 3.429688-3.378906 6.5-6.101562 8.949219-3.730469 1.3125-7.710938 1.742187-11.632812 1.257813-5.695313-.578126-11.445313.175781-16.800782 2.199218-5.546875 3.015625-10.34375 7.246094-14.023437 12.375-1.847657 2.703125-4.210938 5.011719-6.953125 6.800782-4.449219.617187-8.984375.011718-13.117188-1.75-4.488281-1.691407-9.265625-2.480469-14.058594-2.3125-4.320312.4375-8.566406 1.269531-12.3125 2.007812-2.160156.421875-4.925781.957031-7.199218 1.253906l3.503906 7.832032 3.273438 7.28125c1.183593-.214844 2.398437-.449219 3.519531-.671876 3.574219-.695312 7.261719-1.425781 10.871093-1.792968 2.667969.195312 5.292969.777344 7.792969 1.71875 4.789063 1.675781 9.796875 2.636718 14.863281 2.851562 2.660157.015625 5.308594-.390625 7.839844-1.210937 5.789063-2.496094 10.753906-6.585938 14.3125-11.789063 2.257813-3.214844 5.117188-5.957031 8.425782-8.074218 3.160156-.808594 6.441406-1.050782 9.6875-.71875 6.851562.765624 13.78125-.410157 20-3.394532 5.609374-3.863281 9.945312-9.308594 12.445312-15.644531 1.054688-2.574219 2.527344-4.957031 4.351562-7.050781 3.269532-1.6875 6.839844-2.703125 10.503907-2.992188 6.039062-.355468 11.824219-2.566406 16.5625-6.328125zm0 0" fill="#006837"/><g fill="#c1272d"><path d="m400.125 24.140625v96c.003906 8.082031-4.054688 15.625-10.796875 20.082031-3.917969 2.578125-8.511719 3.941406-13.203125 3.917969-3.265625-.011719-6.5-.664063-9.519531-1.917969l-73.597657-31.601562c-2.957031-1.253906-4.878906-4.148438-4.882812-7.359375v-62.242188c.003906-3.207031 1.925781-6.105469 4.882812-7.359375l73.679688-31.597656c7.414062-3.175781 15.929688-2.410156 22.664062 2.035156 6.730469 4.445313 10.78125 11.976563 10.773438 20.042969zm0 0"/><path d="m192.125 41.019531v62.242188c0 3.210937-1.921875 6.105469-4.878906 7.359375l-73.679688 31.601562c-2.988281 1.261719-6.195312 1.914063-9.441406 1.917969-4.6875.023437-9.28125-1.339844-13.199219-3.917969-6.746093-4.457031-10.800781-12-10.800781-20.082031v-96c-.003906-8.066406 4.046875-15.597656 10.777344-20.042969 6.730468-4.445312 15.246094-5.210937 22.664062-2.035156l73.679688 31.597656c2.957031 1.253906 4.878906 4.152344 4.878906 7.359375zm0 0"/><path d="m247.007812 169.101562-43.28125 75.039063c-1.433593 2.484375-4.089843 4.011719-6.960937 4h-.640625c-3.058594-.257813-5.703125-2.25-6.796875-5.121094l-13.921875-36.078125-38.160156 6.078125c-3.042969.484375-6.089844-.824219-7.839844-3.359375-1.761719-2.542968-1.914062-5.863281-.398438-8.558594l50.480469-87.359374c1.261719-2.148438 3.441407-3.59375 5.910157-3.921876 2.464843-.328124 4.949218.5 6.726562 2.242188l22 .078125c2.871094-.011719 5.527344 1.515625 6.960938 4l25.921874 44.960937c1.359376 2.492188 1.359376 5.507813 0 8zm0 0"/><path d="m350.6875 209.660156c-1.757812 2.527344-4.800781 3.828125-7.839844 3.359375l-38.160156-6.078125-13.839844 36.078125c-1.078125 2.886719-3.730468 4.882813-6.800781 5.121094h-.640625c-2.871094.011719-5.523438-1.515625-6.960938-4l-69.277343-120c-1.363281-2.492187-1.363281-5.507813 0-8 1.433593-2.484375 4.089843-4.011719 6.957031-4h74c1.808594-1.683594 4.273438-2.476563 6.722656-2.160156 2.449219.320312 4.625 1.734375 5.917969 3.839843l50.320313 87.28125c1.515624 2.695313 1.359374 6.015626-.398438 8.558594zm0 0"/></g><path d="m160.125 72.140625h-80v48c0 8.082031 4.054688 15.625 10.800781 20.082031 3.917969 2.578125 8.511719 3.941406 13.199219 3.917969 3.246094-.003906 6.453125-.65625 9.441406-1.917969l48.160156-20.648437c-1.011718-3.046875-1.550781-6.226563-1.601562-9.433594zm0 0" fill="#aa222c"/><path d="m192.125 16.140625h96c8.839844 0 16 7.164063 16 16v80c0 8.835937-7.160156 16-16 16h-96c-8.835938 0-16-7.164063-16-16v-80c0-8.835937 7.164062-16 16-16zm0 0" fill="#c1272d"/><path d="m176.125 72.140625v40c.027344 8.824219 7.175781 15.972656 16 16h96c8.828125-.027344 15.976562-7.175781 16-16v-40zm0 0" fill="#aa222c"/><path d="m320.125 72.140625v40c-.046875 3.210937-.585938 6.394531-1.597656 9.441406l48.0625 20.640625c3.023437 1.257813 6.261718 1.910156 9.535156 1.917969 4.691406.023437 9.285156-1.339844 13.203125-3.917969 6.742187-4.457031 10.800781-12 10.796875-20.082031v-48zm0 0" fill="#aa222c"/></svg>