<svg width="24" height="24" viewBox="0 0 24 24" fill="none" xmlns="http://www.w3.org/2000/svg">
<path d="M18.7401 23.016C17.4393 24.2784 16.0041 24.0816 14.6361 23.4864C13.1817 22.8792 11.8521 22.8408 10.3161 23.4864C8.40326 24.312 7.38806 24.072 6.23606 23.016C-0.267941 16.32 0.692059 6.12 8.08406 5.736C9.87686 5.832 11.1321 6.7272 12.1881 6.8016C13.7577 6.4824 15.2601 5.568 16.9401 5.688C18.9585 5.8512 20.4681 6.648 21.4761 8.0808C17.3241 10.5768 18.3081 16.0488 22.1217 17.5848C21.3585 19.5888 20.3793 21.5688 18.7377 23.0328L18.7401 23.016ZM12.0441 5.664C11.8497 2.688 14.2617 0.24 17.0361 0C17.4177 3.432 13.9161 6 12.0441 5.664Z" fill="#878C99"/>
</svg>
