<svg width="34" height="32" viewBox="0 0 34 32" fill="none" xmlns="http://www.w3.org/2000/svg">
<ellipse cx="16.6997" cy="16" rx="16.6997" ry="16" fill="#1B7DF9"/>
<rect x="8.34982" y="8" width="16.6997" height="16" fill="white"/>
<path d="M15.7719 15.0833H14.3803V14.6192H12.5248V17.4041H14.3803V16.94H15.7719V17.8683C15.7719 18.3789 15.3544 18.7966 14.8442 18.7966H12.0609C11.5506 18.7966 11.1331 18.3789 11.1331 17.8683V14.155C11.1331 13.6444 11.5506 13.2267 12.0609 13.2267H14.8442C15.3544 13.2267 15.7719 13.6444 15.7719 14.155V15.0833ZM22.2662 15.0833H20.8746V14.6192H19.0191V17.4041H20.8746V16.94H22.2662V17.8683C22.2662 18.3789 21.8488 18.7966 21.3385 18.7966H18.5552C18.0449 18.7966 17.6274 18.3789 17.6274 17.8683V14.155C17.6274 13.6444 18.0449 13.2267 18.5552 13.2267H21.3385C21.8488 13.2267 22.2662 13.6444 22.2662 14.155V15.0833Z" fill="#1B7DF9"/>
</svg>
