<svg width="100" height="100" viewBox="0 0 100 100" fill="none" xmlns="http://www.w3.org/2000/svg">
<path d="M49.9878 3.13721C24.0731 3.13721 3.11279 24.0975 3.11279 50.0122V74.9939C3.11279 87.0586 12.9414 96.8872 25.0061 96.8872C30.1458 96.8872 34.3689 92.6397 34.3689 87.5V56.2378C34.3689 51.0981 30.1458 46.875 25.0061 46.875C18.8822 46.875 13.3412 49.4074 9.36279 53.4729V50.0122C9.36279 27.4519 27.4275 9.36279 49.9878 9.36279C72.5481 9.36279 90.6372 27.4519 90.6372 50.0122V53.4851C86.6627 49.4145 81.127 46.875 75 46.875C69.8603 46.875 65.625 51.1103 65.625 56.25V87.5C65.625 92.6397 69.8603 96.875 75 96.875C87.0647 96.875 96.875 87.0646 96.875 75L96.8628 50.0122C96.8628 24.0975 75.9025 3.13721 49.9878 3.13721H49.9878ZM25.0061 53.125C26.7914 53.125 28.1189 54.4524 28.1189 56.2378V87.5C28.1189 89.2852 26.7914 90.6372 25.0061 90.6372C16.2958 90.6372 9.36279 83.7042 9.36279 74.9939V68.7439C9.36279 60.0336 16.2958 53.125 25.0061 53.125ZM75 53.125C83.7103 53.125 90.625 60.0398 90.625 68.75V75C90.625 83.7103 83.7103 90.625 75 90.625C73.2147 90.625 71.875 89.2854 71.875 87.5V56.25C71.875 54.4646 73.2147 53.125 75 53.125Z" fill="#175DD6"/>
</svg>
