<svg width="14" height="14" viewBox="0 0 14 14" fill="none" xmlns="http://www.w3.org/2000/svg">
<path d="M6.4165 4.08329H7.58317V5.24996H6.4165V4.08329ZM6.99984 9.91663C7.32067 9.91663 7.58317 9.65413 7.58317 9.33329V6.99996C7.58317 6.67913 7.32067 6.41663 6.99984 6.41663C6.679 6.41663 6.4165 6.67913 6.4165 6.99996V9.33329C6.4165 9.65413 6.679 9.91663 6.99984 9.91663ZM6.99984 1.16663C3.77984 1.16663 1.1665 3.77996 1.1665 6.99996C1.1665 10.22 3.77984 12.8333 6.99984 12.8333C10.2198 12.8333 12.8332 10.22 12.8332 6.99996C12.8332 3.77996 10.2198 1.16663 6.99984 1.16663ZM6.99984 11.6666C4.42734 11.6666 2.33317 9.57246 2.33317 6.99996C2.33317 4.42746 4.42734 2.33329 6.99984 2.33329C9.57234 2.33329 11.6665 4.42746 11.6665 6.99996C11.6665 9.57246 9.57234 11.6666 6.99984 11.6666Z" fill="#323232"/>
</svg>
