<svg width="64" height="64" viewBox="0 0 64 64" fill="none" xmlns="http://www.w3.org/2000/svg">
<path d="M31.9999 5.33334C17.2799 5.33334 5.33325 17.28 5.33325 32C5.33325 46.72 17.2799 58.6667 31.9999 58.6667C46.7199 58.6667 58.6666 46.72 58.6666 32C58.6666 17.28 46.7199 5.33334 31.9999 5.33334ZM26.6666 42.6667C25.1999 42.6667 23.9999 41.4667 23.9999 40V24C23.9999 22.5333 25.1999 21.3333 26.6666 21.3333C28.1333 21.3333 29.3333 22.5333 29.3333 24V40C29.3333 41.4667 28.1333 42.6667 26.6666 42.6667ZM37.3333 42.6667C35.8666 42.6667 34.6666 41.4667 34.6666 40V24C34.6666 22.5333 35.8666 21.3333 37.3333 21.3333C38.7999 21.3333 39.9999 22.5333 39.9999 24V40C39.9999 41.4667 38.7999 42.6667 37.3333 42.6667Z" fill="#134DCD"/>
</svg>
