<svg xmlns="http://www.w3.org/2000/svg" width="48" height="48" viewBox="0 0 48 48"><defs><style>.a{fill:#e8f2ff;}.b{fill:#002b62;}</style></defs><g transform="translate(0 -0.128)"><rect class="a" width="48" height="48" rx="4" transform="translate(0 0.128)"/><g transform="translate(8.312 7.33)"><g transform="translate(18.594 0.499)"><path class="b" d="M307.747.5h-4.34V2.946h4.34a1.287,1.287,0,0,1,1.287,1.284V8.573h2.447V4.23A3.737,3.737,0,0,0,307.747.5Z" transform="translate(-303.407 -0.499)"/></g><g transform="translate(24.223 11.019)"><rect class="b" width="2.447" height="5.627"/></g><g transform="translate(0 0.502)"><path class="b" d="M3.731.543A3.737,3.737,0,0,0,0,4.277v4.34H2.447V4.277A1.287,1.287,0,0,1,3.731,2.99H8.074V.543Z" transform="translate(0 -0.543)"/></g><g transform="translate(10.52 0.499)"><rect class="b" width="5.627" height="2.447"/></g><g transform="translate(10.52 24.72)"><rect class="b" width="5.627" height="2.447"/></g><g transform="translate(0.003 19.093)"><path class="b" d="M3.777,309.533a1.287,1.287,0,0,1-1.287-1.284v-4.343H.043v4.343a3.737,3.737,0,0,0,3.734,3.731h4.34v-2.447Z" transform="translate(-0.043 -303.906)"/></g><g transform="translate(0 11.019)"><rect class="b" width="2.447" height="5.627"/></g><g transform="translate(18.594 19.093)"><path class="b" d="M311.481,309.533v-5.627h-2.447v5.627h-5.627v2.447h5.627v4.648h2.447V311.98h4.71v-2.447Z" transform="translate(-303.407 -303.906)"/></g></g></g></svg>