<svg xmlns="http://www.w3.org/2000/svg" width="48" height="48" viewBox="0 0 48 48"><defs><style>.a{fill:#ecf4ed;}.b{fill:#2c5130;stroke:#2c5130;}</style></defs><g transform="translate(0 -0.128)"><rect class="a" width="48" height="48" rx="4" transform="translate(0 0.128)"/><g transform="translate(7.129 -28.101)"><path class="b" d="M30.078,40H3.665A3.454,3.454,0,0,0,0,43.185V61.551a3.454,3.454,0,0,0,3.665,3.185l3.5-3.185,4.167,3.185,4.088-3.185,4.57,3.185,4.746-3.185,5.344,3.185a3.454,3.454,0,0,0,3.665-3.185V43.185A3.454,3.454,0,0,0,30.078,40Zm2.674,21.551a2.521,2.521,0,0,1-2.674,2.324l-5.344-3.234L19.7,63.875l-4.286-3.234-4.044,3.234-4.21-3.234-3.5,3.234A2.521,2.521,0,0,1,.99,61.551V43.185a2.521,2.521,0,0,1,2.674-2.324H30.078a2.521,2.521,0,0,1,2.674,2.324Z" transform="translate(0)"/><path class="b" d="M61.021,120H32.5a.5.5,0,0,0,0,.99H61.021a.5.5,0,1,0,0-.99Z" transform="translate(-29.887 -73.771)"/><path class="b" d="M48.5,80.99a.5.5,0,1,0-.35-.145A.5.5,0,0,0,48.5,80.99Z" transform="translate(-44.83 -36.771)"/><path class="b" d="M112.5,80.99a.5.5,0,1,0-.35-.145A.5.5,0,0,0,112.5,80.99Z" transform="translate(-104.604 -36.771)"/><path class="b" d="M80.5,80.99a.5.5,0,1,0-.35-.145A.5.5,0,0,0,80.5,80.99Z" transform="translate(-74.717 -36.771)"/></g></g></svg>