<svg xmlns="http://www.w3.org/2000/svg" width="28" height="28" viewBox="0 0 28 28">
  <g id="Icon_24px" data-name="Icon 24px" transform="translate(-0.188 -0.208)">
    <path id="Shape" d="M0,0H28V28H0Z" transform="translate(0.188 0.208)" fill="none"/>
    <g id="noun_text_256636" transform="translate(7.256 5.033)">
      <path id="Path_2422" data-name="Path 2422" d="M27.477,29.907v-.351a2.068,2.068,0,0,0,.607-.068.266.266,0,0,0,.13-.172,7,7,0,0,0,.047-1.109V25.642c0-.7,0-.96-.013-1.043h-.609q-.46,0-.809.03a.367.367,0,0,0-.162.034.292.292,0,0,0-.051.15,2.724,2.724,0,0,0-.064.542H26.2q-.017-.878-.021-.989c-.009-.126-.023-.261-.043-.407l.038-.043q.2.022.426.03.366.013,1.409.013h1.719q1.072,0,1.434-.013.2-.008.4-.03l.042.043c-.025.174-.041.327-.047.458q0,.035-.017.938h-.353a3.188,3.188,0,0,0-.056-.508.422.422,0,0,0-.055-.184.291.291,0,0,0-.136-.03q-.35-.034-.839-.034h-.609c-.008.1-.013.361-.013,1.043v2.565a7.137,7.137,0,0,0,.047,1.113.255.255,0,0,0,.128.165,2,2,0,0,0,.609.071v.351q-.825-.038-1.39-.038Q28.263,29.868,27.477,29.907Z" transform="translate(-23.356 -15.574)" fill="#fff"/>
      <g id="copy">
        <g id="Group_1697" data-name="Group 1697">
          <path id="Path_2441" data-name="Path 2441" d="M58.63,85.4H50.1a1.451,1.451,0,0,0-1.45,1.45V99.088a1.451,1.451,0,0,0,1.45,1.45H58.63a1.451,1.451,0,0,0,1.45-1.45V86.85A1.456,1.456,0,0,0,58.63,85.4Zm.432,13.684a.436.436,0,0,1-.436.436H50.1a.436.436,0,0,1-.436-.436V86.85a.436.436,0,0,1,.436-.436h8.529a.436.436,0,0,1,.436.436Z" transform="translate(-48.65 -82.191)" fill="#fff"/>
          <path id="Path_2442" data-name="Path 2442" d="M145.43,0H136.9a1.451,1.451,0,0,0-1.45,1.45.507.507,0,1,0,1.014,0,.436.436,0,0,1,.436-.436h8.529a.436.436,0,0,1,.436.436V13.688a.436.436,0,0,1-.436.436.507.507,0,0,0,0,1.014,1.451,1.451,0,0,0,1.45-1.45V1.45A1.451,1.451,0,0,0,145.43,0Z" transform="translate(-132.189)" fill="#fff"/>
        </g>
      </g>
    </g>
  </g>
</svg>
