<svg xmlns="http://www.w3.org/2000/svg" width="99.549" height="71.043" viewBox="0 0 99.549 71.043">
  <g id="Copy_OCR_ICon" data-name="Copy OCR ICon" transform="translate(-1076.546 -884.957)">
    <g id="Group_1355" data-name="Group 1355" transform="translate(701 -107)">
      <g id="xls" transform="translate(329 965)">
        <path id="Path_2220" data-name="Path 2220" d="M404.39,148.39,384,128h20.39Z" transform="translate(-278.39 -101.043)" fill="none"/>
        <g id="Group_1310" data-name="Group 1310" transform="translate(46.546 81.713)">
          <path id="Path_2222" data-name="Path 2222" d="M108.76,297.858l2.011-2.521c.6-.787,1.77.218,1.111.97-.693.821-1.421,1.712-2.116,2.625l2.359,2.937a.759.759,0,1,1-1.26.843l-2.129-2.729-2.092,2.788c-.59.843-1.9-.1-1.238-.891l2.324-2.949c-.729-.914-1.435-1.8-2.139-2.625a.748.748,0,1,1,1.157-.946Z" transform="translate(-105.226 -294.714)" fill="#fff"/>
          <path id="Path_2223" data-name="Path 2223" d="M197.36,296.05a.721.721,0,0,1,.729-.706.705.705,0,0,1,.683.706v5.793h3.145a.763.763,0,1,1,0,1.514H198.09a.7.7,0,0,1-.729-.7v-6.6h0Z" transform="translate(-189.033 -294.988)" fill="#fff"/>
          <path id="Path_2224" data-name="Path 2224" d="M270.681,293.51c.266-2.244,3.653-2.648,5.249-1.422a.677.677,0,1,1-.74,1.132c-.856-.542-2.8-.8-3.041.4-.312,1.9,4.717.811,4.636,3.887-.081,2.937-4.335,3-5.932,1.688a.855.855,0,0,1-.162-1.134.683.683,0,0,1,1.03-.079c.947.646,3.388,1.132,3.56-.51C275.132,295.766,270.322,296.794,270.681,293.51Z" transform="translate(-255.605 -291.407)" fill="#fff"/>
        </g>
      </g>
      <g id="Group_1354" data-name="Group 1354" transform="translate(5 -4)">
        <g id="Group_1336" data-name="Group 1336" transform="translate(389 997)">
          <rect id="Rectangle_1028" data-name="Rectangle 1028" width="12" height="2" rx="1" fill="#4d61fc"/>
          <rect id="Rectangle_1029" data-name="Rectangle 1029" width="12" height="2" rx="1" transform="translate(13)" fill="#4d61fc"/>
        </g>
        <g id="Group_1337" data-name="Group 1337" transform="translate(418 997)">
          <rect id="Rectangle_1028-2" data-name="Rectangle 1028" width="12" height="2" rx="1" fill="#4d61fc"/>
          <rect id="Rectangle_1029-2" data-name="Rectangle 1029" width="12" height="2" rx="1" transform="translate(13)" fill="#4d61fc"/>
        </g>
        <g id="Group_1338" data-name="Group 1338" transform="translate(389 1004.2)">
          <rect id="Rectangle_1028-3" data-name="Rectangle 1028" width="12" height="2" rx="1" fill="#4d61fc"/>
          <rect id="Rectangle_1029-3" data-name="Rectangle 1029" width="12" height="2" rx="1" transform="translate(13)" fill="#4d61fc"/>
        </g>
        <g id="Group_1339" data-name="Group 1339" transform="translate(418 1004.2)">
          <rect id="Rectangle_1028-4" data-name="Rectangle 1028" width="12" height="2" rx="1" fill="#4d61fc"/>
          <rect id="Rectangle_1029-4" data-name="Rectangle 1029" width="12" height="2" rx="1" transform="translate(13)" fill="#4d61fc"/>
        </g>
        <g id="Group_1340" data-name="Group 1340" transform="translate(389 1011.4)">
          <rect id="Rectangle_1028-5" data-name="Rectangle 1028" width="12" height="2" rx="1" fill="#4d61fc"/>
          <rect id="Rectangle_1029-5" data-name="Rectangle 1029" width="12" height="2" rx="1" transform="translate(13)" fill="#4d61fc"/>
        </g>
        <g id="Group_1341" data-name="Group 1341" transform="translate(418 1011.4)">
          <rect id="Rectangle_1028-6" data-name="Rectangle 1028" width="12" height="2" rx="1" fill="#4d61fc"/>
          <rect id="Rectangle_1029-6" data-name="Rectangle 1029" width="12" height="2" rx="1" transform="translate(13)" fill="#4d61fc"/>
        </g>
        <g id="Group_1342" data-name="Group 1342" transform="translate(389 1018.6)">
          <rect id="Rectangle_1028-7" data-name="Rectangle 1028" width="12" height="2" rx="1" fill="#4d61fc"/>
          <rect id="Rectangle_1029-7" data-name="Rectangle 1029" width="12" height="2" rx="1" transform="translate(13)" fill="#4d61fc"/>
        </g>
        <g id="Group_1343" data-name="Group 1343" transform="translate(418 1018.6)">
          <rect id="Rectangle_1028-8" data-name="Rectangle 1028" width="12" height="2" rx="1" fill="#4d61fc"/>
          <rect id="Rectangle_1029-8" data-name="Rectangle 1029" width="12" height="2" rx="1" transform="translate(13)" fill="#4d61fc"/>
        </g>
        <g id="Group_1344" data-name="Group 1344" transform="translate(389 1025.8)">
          <rect id="Rectangle_1028-9" data-name="Rectangle 1028" width="12" height="2" rx="1" fill="#4d61fc"/>
          <rect id="Rectangle_1029-9" data-name="Rectangle 1029" width="12" height="2" rx="1" transform="translate(13)" fill="#4d61fc"/>
        </g>
        <g id="Group_1345" data-name="Group 1345" transform="translate(418 1025.8)">
          <rect id="Rectangle_1028-10" data-name="Rectangle 1028" width="12" height="2" rx="1" fill="#4d61fc"/>
          <rect id="Rectangle_1029-10" data-name="Rectangle 1029" width="12" height="2" rx="1" transform="translate(13)" fill="#4d61fc"/>
        </g>
        <g id="Group_1346" data-name="Group 1346" transform="translate(389 1033)">
          <rect id="Rectangle_1028-11" data-name="Rectangle 1028" width="12" height="2" rx="1" fill="#4d61fc"/>
          <rect id="Rectangle_1029-11" data-name="Rectangle 1029" width="12" height="2" rx="1" transform="translate(13)" fill="#4d61fc"/>
        </g>
        <g id="Group_1347" data-name="Group 1347" transform="translate(418 1033)">
          <rect id="Rectangle_1028-12" data-name="Rectangle 1028" width="12" height="2" rx="1" fill="#4d61fc"/>
          <rect id="Rectangle_1029-12" data-name="Rectangle 1029" width="12" height="2" rx="1" transform="translate(13)" fill="#4d61fc"/>
        </g>
      </g>
    </g>
    <g id="download" transform="translate(1121 917)">
      <g id="Group_1370" data-name="Group 1370" transform="translate(28.095 3)">
        <g id="Group_1369" data-name="Group 1369" transform="translate(0)">
          <path id="Path_2337" data-name="Path 2337" d="M143.908,15.8a1,1,0,0,0-.91-.635h-4V1.083A1.045,1.045,0,0,0,138,0h-4a1.045,1.045,0,0,0-1,1.083V15.167h-4a1,1,0,0,0-.91.635,1.152,1.152,0,0,0,.158,1.161l7,8.667a.948.948,0,0,0,1.5,0l7-8.667A1.151,1.151,0,0,0,143.908,15.8Z" transform="translate(-127.998)" fill="#4d61fc"/>
        </g>
      </g>
      <g id="Group_1372" data-name="Group 1372" transform="translate(17.095 27)">
        <g id="Group_1371" data-name="Group 1371" transform="translate(0)">
          <path id="Path_2338" data-name="Path 2338" d="M50.592,359.967H19.537V352H16v9.6a2.469,2.469,0,0,0,2.533,2.4H51.467A2.467,2.467,0,0,0,54,361.6V352H50.592Z" transform="translate(-16 -352)" fill="#4d61fc"/>
        </g>
      </g>
    </g>
  </g>
</svg>
