<svg xmlns="http://www.w3.org/2000/svg" width="15.742" height="15.711" viewBox="0 0 15.742 15.711">
  <g id="Docsumo_capture_icon" data-name="Docsumo capture icon" transform="translate(-7.128 -6.502)">
    <g id="Arch-Mark-Copy-3" transform="translate(9.982 9.162)">
      <path id="Triangle-2" d="M9.326,35.391a.3.3,0,0,1-.417.105.32.32,0,0,1-.1-.431l2.039-3.473a.3.3,0,0,1,.417-.105.32.32,0,0,1,.1.431Zm1.931-3.474a.32.32,0,0,1,.1-.431.3.3,0,0,1,.417.105l2.082,3.546a.32.32,0,0,1-.1.431.3.3,0,0,1-.416-.105Z" transform="translate(-7.531 -29.486)" fill="#4d61fc"/>
      <path id="Oval-2-Copy" d="M-28.648,180.749a.4.4,0,0,0,.4-.4.4.4,0,0,0-.4-.4.4.4,0,0,0-.4.4A.4.4,0,0,0-28.648,180.749Zm0,.954A1.352,1.352,0,0,1-30,180.352,1.352,1.352,0,0,1-28.648,179a1.352,1.352,0,0,1,1.352,1.352A1.352,1.352,0,0,1-28.648,181.7Z" transform="translate(30 -173.676)" fill="#4d61fc"/>
      <path id="Oval-2-Copy-9" d="M76.352-28.251a.4.4,0,0,0,.4-.4.4.4,0,0,0-.4-.4.4.4,0,0,0-.4.4A.4.4,0,0,0,76.352-28.251Zm0,.954A1.352,1.352,0,0,1,75-28.648,1.352,1.352,0,0,1,76.352-30,1.352,1.352,0,0,1,77.7-28.648,1.352,1.352,0,0,1,76.352-27.3Z" transform="translate(-72.6 30)" fill="#4d61fc"/>
      <path id="Oval-2-Copy-10" d="M180.352,180.749a.4.4,0,1,0-.4-.4A.4.4,0,0,0,180.352,180.749Zm0,.954a1.352,1.352,0,1,1,1.352-1.352A1.352,1.352,0,0,1,180.352,181.7Z" transform="translate(-174.222 -173.676)" fill="#4d61fc"/>
      <path id="Path-3-Copy-3" d="M14.638,119.223q.774-1.652,1.809-1.652t1.89,1.62l.42-.137Q18.187,117,16.446,117t-2.305,2.054Z" transform="translate(-12.737 -113.193)" fill="#4d61fc" fill-rule="evenodd"/>
    </g>
    <g id="screenshot" transform="translate(7.128 6.502)">
      <g id="Group_1679" data-name="Group 1679" transform="translate(9.329 0)">
        <g id="Group_1678" data-name="Group 1678">
          <path id="Path_2428" data-name="Path 2428" d="M305.584.5h-2.177V1.726h2.177a.646.646,0,0,1,.646.644V4.55h1.227V2.371A1.875,1.875,0,0,0,305.584.5Z" transform="translate(-303.407 -0.499)" fill="#4d61fc"/>
        </g>
      </g>
      <g id="Group_1681" data-name="Group 1681" transform="translate(12.153 5.278)">
        <g id="Group_1680" data-name="Group 1680">
          <rect id="Rectangle_1129" data-name="Rectangle 1129" width="1.227" height="2.823" fill="#4d61fc"/>
        </g>
      </g>
      <g id="Group_1683" data-name="Group 1683" transform="translate(0 0.001)">
        <g id="Group_1682" data-name="Group 1682">
          <path id="Path_2429" data-name="Path 2429" d="M1.872.543A1.875,1.875,0,0,0,0,2.416V4.594H1.227V2.416a.646.646,0,0,1,.644-.646H4.051V.543Z" transform="translate(0 -0.543)" fill="#4d61fc"/>
        </g>
      </g>
      <g id="Group_1685" data-name="Group 1685" transform="translate(5.278 0)">
        <g id="Group_1684" data-name="Group 1684">
          <rect id="Rectangle_1130" data-name="Rectangle 1130" width="2.823" height="1.227" fill="#4d61fc"/>
        </g>
      </g>
      <g id="Group_1687" data-name="Group 1687" transform="translate(5.278 12.152)">
        <g id="Group_1686" data-name="Group 1686">
          <rect id="Rectangle_1131" data-name="Rectangle 1131" width="2.823" height="1.227" fill="#4d61fc"/>
        </g>
      </g>
      <g id="Group_1689" data-name="Group 1689" transform="translate(0.001 9.329)">
        <g id="Group_1688" data-name="Group 1688">
          <path id="Path_2430" data-name="Path 2430" d="M1.916,306.729a.646.646,0,0,1-.646-.644v-2.179H.043v2.179a1.875,1.875,0,0,0,1.873,1.872H4.094v-1.227Z" transform="translate(-0.043 -303.906)" fill="#4d61fc"/>
        </g>
      </g>
      <g id="Group_1691" data-name="Group 1691" transform="translate(0 5.278)">
        <g id="Group_1690" data-name="Group 1690">
          <rect id="Rectangle_1132" data-name="Rectangle 1132" width="1.227" height="2.823" fill="#4d61fc"/>
        </g>
      </g>
      <g id="Group_1693" data-name="Group 1693" transform="translate(9.329 9.329)">
        <g id="Group_1692" data-name="Group 1692">
          <path id="Path_2431" data-name="Path 2431" d="M307.458,306.729v-2.823H306.23v2.823h-2.823v1.227h2.823v2.332h1.227v-2.332h2.363v-1.227Z" transform="translate(-303.407 -303.906)" fill="#4d61fc"/>
        </g>
      </g>
    </g>
  </g>
</svg>
