<svg xmlns="http://www.w3.org/2000/svg" width="34" height="34" viewBox="0 0 34 34"><defs><style>.a{fill:none;}.b{fill:#fff;}</style></defs><g transform="translate(-0.073 -0.095)"><path class="a" d="M0,0H34V34H0Z" transform="translate(0.073 0.095)"/><g transform="translate(3.581 2.633)"><path class="b" d="M27.751,31.132v-.423a2.491,2.491,0,0,0,.731-.082.321.321,0,0,0,.156-.207,8.425,8.425,0,0,0,.057-1.335V26c0-.842-.006-1.156-.016-1.256h-.734q-.554,0-.975.036a.442.442,0,0,0-.2.041.352.352,0,0,0-.062.18,3.281,3.281,0,0,0-.077.653h-.426q-.021-1.057-.025-1.191c-.011-.151-.028-.315-.052-.49l.046-.051q.241.026.513.036.441.016,1.7.016h2.071q1.292,0,1.727-.016.236-.01.477-.036l.051.051c-.03.21-.05.394-.056.552q0,.042-.021,1.13h-.426a3.84,3.84,0,0,0-.067-.612.508.508,0,0,0-.067-.221.35.35,0,0,0-.164-.036q-.421-.041-1.011-.041h-.733c-.01.12-.015.435-.015,1.256v3.089a8.6,8.6,0,0,0,.056,1.341.307.307,0,0,0,.154.2,2.411,2.411,0,0,0,.734.085v.423q-.994-.046-1.674-.046Q28.7,31.085,27.751,31.132Z" transform="translate(-17.643 -10.458)"/><g transform="translate(-43.506 3.41)"><g transform="translate(48.65)"><path class="b" d="M60.67,85.4H50.4a1.748,1.748,0,0,0-1.747,1.747v14.74a1.748,1.748,0,0,0,1.747,1.747H60.67a1.748,1.748,0,0,0,1.747-1.747V87.147A1.754,1.754,0,0,0,60.67,85.4Zm.52,16.483a.525.525,0,0,1-.525.525H50.392a.525.525,0,0,1-.525-.525V87.147a.525.525,0,0,1,.525-.525H60.666a.525.525,0,0,1,.525.525Z" transform="translate(-48.65 -81.535)"/><path class="b" d="M147.47,0H137.2a1.748,1.748,0,0,0-1.747,1.747.611.611,0,1,0,1.222,0,.525.525,0,0,1,.525-.525H147.47a.525.525,0,0,1,.525.525v14.74a.525.525,0,0,1-.525.525.611.611,0,0,0,0,1.222,1.748,1.748,0,0,0,1.747-1.747V1.747A1.748,1.748,0,0,0,147.47,0Z" transform="translate(-131.522)"/></g></g></g></g></svg>