<svg xmlns="http://www.w3.org/2000/svg" xmlns:xlink="http://www.w3.org/1999/xlink" width="35" height="34" viewBox="0 0 35 34"><defs><style>.a{fill:none;}.b{fill:#fff;}.c{clip-path:url(#a);}.d{clip-path:url(#b);}</style><clipPath id="a"><path class="a" d="M12.5,25A12.5,12.5,0,1,1,25,12.5,12.514,12.514,0,0,1,12.5,25Zm0-22.5a10,10,0,1,0,10,10A10.012,10.012,0,0,0,12.5,2.5Zm1.25,16.251h-2.5v-7.5h2.5v7.5Zm0-10h-2.5v-2.5h2.5v2.5Z" transform="translate(-0.453 -0.042)"/></clipPath><clipPath id="b"><rect class="b" width="63.573" height="63.573"/></clipPath></defs><g transform="translate(-0.27 0.265)"><g transform="translate(0 0)"><g transform="translate(4.722 3.777)"><path class="a" d="M12.5,25A12.5,12.5,0,1,1,25,12.5,12.514,12.514,0,0,1,12.5,25Zm0-22.5a10,10,0,1,0,10,10A10.012,10.012,0,0,0,12.5,2.5Zm1.25,16.251h-2.5v-7.5h2.5v7.5Zm0-10h-2.5v-2.5h2.5v2.5Z" transform="translate(-0.453 -0.042)"/><g class="c" transform="translate(0 0)"><g transform="translate(-19.076 -18.8)"><rect class="b" width="63.573" height="63.573"/></g></g></g><rect class="a" width="35" height="34" transform="translate(0.27 -0.265)"/></g></g></svg>