<svg width="39px" height="62px" viewBox="-3436 -1630 39 62" version="1.1"
     xmlns="http://www.w3.org/2000/svg">
  <defs></defs>
  <g id="noun_63562_cc" stroke="none" stroke-width="1" fill="none" fill-rule="evenodd" transform="translate(-3436.000000, -1630.000000)">
    <g id="Group" fill="#000000">
      <g id="Shape">
        <path d="M6.22172973,21.884376 L19.0886178,8.89016949 L31.9555058,21.884376 C33.3783784,23.3097072 35.6805328,23.3097072 37.1034054,21.884376 C38.526278,20.4437596 38.526278,18.1146995 37.1034054,16.6740832 L21.6654286,1.09097072 C20.242556,-0.334360555 17.9327722,-0.334360555 16.517529,1.09097072 L1.07192278,16.6740832 C-0.352857143,18.1146995 -0.345227799,20.4437596 1.07192278,21.884376 C2.4967027,23.3097072 4.79885714,23.3097072 6.22172973,21.884376 Z"></path>
        <path d="M37.1034054,39.2997843 C35.6805328,37.874453 33.3783784,37.874453 31.9555058,39.2997843 L19.0886178,52.2939908 L6.22172973,39.2997843 C4.80648649,37.874453 2.50433205,37.874453 1.08145946,39.2997843 C-0.343320463,40.7404006 -0.343320463,43.0694607 1.08145946,44.5062558 L16.5194363,60.0893683 C17.9423089,61.5185208 20.2444633,61.5185208 21.6673359,60.0893683 L37.1053127,44.5062558 C38.526278,43.0694607 38.526278,40.7404006 37.1034054,39.2997843 Z"></path>
      </g>
    </g>
  </g>
</svg>
