<svg width="20px" height="20px" viewBox="0 0 30 30" version="1.1" xmlns="http://www.w3.org/2000/svg" xmlns:xlink="http://www.w3.org/1999/xlink">
    <defs></defs>
    <path d="M27.6383333,16.0102817 C25.9570833,17.7147887 24.3208333,19.3732394 22.6670833,21.0494366 C25.0091667,23.7802817 27.3183333,26.4726761 29.6175,29.1528169 C29.3495833,29.4338028 29.1025,29.6932394 28.8375,29.9716901 C26.18125,27.6291549 23.53375,25.2946479 20.8795833,22.9533803 C19.2333333,24.6240845 17.5966667,26.2838028 15.8883333,28.0170423 C15.8720833,27.8007042 15.8591667,27.7039437 15.85875,27.606338 C15.8570833,26.8212676 15.86625,26.0357746 15.85,25.2519718 C15.8470833,25.1066197 15.78375,24.9261972 15.685,24.8252113 C12.195,21.2738028 8.69916667,17.7278873 5.19333333,14.1933803 C5.06625,14.064507 4.82916667,14.0049296 4.63791667,13.9914085 C3.31291667,13.8988732 1.98708333,13.8270423 0.660833333,13.7471831 C0.512083333,13.7383099 0.364166667,13.7188732 0.270416667,13.7095775 C4.70416667,9.21253521 9.15208333,4.70070423 13.5970833,0.192253521 C13.62625,0.653239437 13.66,1.16239437 13.6916667,1.67239437 C13.75625,2.71225352 13.8133333,3.75338028 13.89125,4.7928169 C13.9025,4.93816901 13.9816667,5.1084507 14.08375,5.21197183 C17.56625,8.75450704 21.0541667,12.2915493 24.5491667,15.8214085 C24.6554167,15.9283099 24.845,15.9988732 24.9975,16.0022535 C25.8591667,16.0191549 26.72125,16.0102817 27.6383333,16.0102817 L27.6383333,16.0102817 Z M6.51416667,12.5835211 C10.1033333,16.224507 13.6941667,19.8671831 17.265,23.49 C19.24875,21.4783099 21.2470833,19.4514085 23.22125,17.448169 C19.6491667,13.8249296 16.05125,10.175493 12.47125,6.54338028 C10.5041667,8.53774648 8.50666667,10.5638028 6.51416667,12.5835211 L6.51416667,12.5835211 Z" id="Shape" stroke="none" fill="#212121" fill-rule="evenodd"></path>
</svg>
