<?xml version="1.0" encoding="UTF-8"?>
<svg width="54px" height="56px" viewBox="0 0 54 56" version="1.1"
     xmlns="http://www.w3.org/2000/svg">
    <!-- Generator: Sketch 47.1 (45422) - http://www.bohemiancoding.com/sketch -->
    <title>noun_1177129_cc</title>
    <desc>Created with Sketch.</desc>
    <defs></defs>
    <g id="Page-1" stroke="none" stroke-width="1" fill="none" fill-rule="evenodd">
        <g id="noun_1177129_cc" fill-rule="nonzero" fill="#FFFFFF">
            <g id="Group">
                <g id="Shape">
                    <path d="M7.2410525,46.4582847 C6.7561496,46.7215996 6.1397026,46.5476393 5.8660526,46.0729825 L0.7867403,37.2627122 C0.5122517,36.7866007 0.6787023,36.1623056 1.1412917,35.8788651 L5.6562384,33.1124398 C6.1265402,32.8242736 6.5075562,32.1476873 6.5072555,31.5902961 L6.5033792,24.4066673 C6.5030811,23.8541768 6.1138614,23.1679578 5.6512595,22.8845096 L1.1361909,20.1180095 C0.6658763,19.8298355 0.5082052,19.2089479 0.7821475,18.7344659 L5.8668858,9.9274407 C6.1416676,9.4515047 6.7653172,9.2833787 7.2420915,9.5422795 L11.8954851,12.0691936 C12.3802084,12.332411 13.1569069,12.3245071 13.6397722,12.046072 L19.8629153,8.4576146 C20.3415352,8.1816275 20.7414499,7.5018747 20.7556219,6.9595403 L20.8939432,1.6662691 C20.9083515,1.1148927 21.3672243,0.6676357 21.9151142,0.6672951 L32.0846883,0.6609734 C32.6342572,0.6606318 33.091692,1.1165571 33.1058697,1.6591071 L33.2442459,6.9544821 C33.25866,7.5060778 33.6540547,8.1747694 34.1368661,8.4535207 L40.3593146,12.046053 C40.8378811,12.3223535 41.6268792,12.3285622 42.1038301,12.0695655 L46.7589475,9.5417153 C47.2438504,9.2784004 47.8602974,9.4523607 48.1339474,9.9270175 L53.2132597,18.7372878 C53.4877483,19.2133993 53.3212977,19.8376944 52.8587083,20.1211349 L48.3437616,22.8875602 C47.8734598,23.1757264 47.4924438,23.8523127 47.4927445,24.4097039 L47.4966208,31.5933327 C47.4969189,32.1458232 47.8861386,32.8320422 48.3487405,33.1154904 L52.8638091,35.8819905 C53.3341237,36.1701645 53.4917948,36.7910521 53.2178525,37.2655341 L48.1331142,46.0725593 C47.8583324,46.5484953 47.2346828,46.7166213 46.7579085,46.4577205 L42.1045149,43.9308064 C41.6197916,43.667589 40.8430931,43.6754929 40.3602278,43.953928 L34.1370847,47.5423854 C33.6584648,47.8183725 33.2585501,48.4981253 33.2443781,49.0404597 L33.1060568,54.3337309 C33.0916485,54.8851073 32.6327757,55.3323643 32.0848858,55.3327049 L21.9153117,55.3390266 C21.3657428,55.3393682 20.908308,54.8834429 20.8941303,54.3408929 L20.7557541,49.0455179 C20.74134,48.4939222 20.3459453,47.8252306 19.8631339,47.5464793 L13.6406854,43.953947 C13.1621189,43.6776465 12.3731208,43.6714378 11.8961699,43.9304345 L7.2410525,46.4582847 Z M21,38.3923048 C26.7395115,41.7060133 34.0785963,39.7395115 37.3923048,34 C40.7060133,28.2604885 38.7395115,20.9214037 33,17.6076952 C27.2604885,14.2939867 19.9214037,16.2604885 16.6076952,22 C13.2939867,27.7395115 15.2604885,35.0785963 21,38.3923048 Z"></path>
                </g>
            </g>
        </g>
    </g>
</svg>