<svg width="16" height="16" viewBox="0 0 16 16" fill="none" xmlns="http://www.w3.org/2000/svg">
<path d="M11.4792 10.3387L12.3605 11.2205C12.681 11.2044 13.0255 11.3247 13.2739 11.5732L15.6775 13.9779C15.8897 14.2059 16.0053 14.5073 15.9998 14.8188C15.9943 15.1303 15.8682 15.4275 15.648 15.6478C15.4278 15.8681 15.1308 15.9943 14.8194 15.9998C14.5081 16.0053 14.2068 15.8897 13.9789 15.6773L11.5754 13.2725C11.4558 13.1535 11.3626 13.0106 11.3019 12.8532C11.2412 12.6957 11.2142 12.5273 11.2228 12.3587L10.3415 11.477C9.0538 12.4778 7.4332 12.95 5.80973 12.7973C4.18625 12.6446 2.68197 11.8786 1.60318 10.6552C0.524384 9.43185 -0.0477996 7.84308 0.00313001 6.21243C0.0540596 4.58178 0.724273 3.03185 1.8773 1.87824C3.03033 0.724636 4.57948 0.0540867 6.20932 0.00313158C7.83916 -0.0478235 9.42713 0.524647 10.6499 1.60398C11.8727 2.68331 12.6383 4.18834 12.7909 5.81263C12.9435 7.43692 12.4716 9.05834 11.4712 10.3467L11.4792 10.3387ZM6.41572 11.2205C7.69065 11.2205 8.91336 10.7137 9.81487 9.81177C10.7164 8.90981 11.2228 7.68649 11.2228 6.41092C11.2228 5.13535 10.7164 3.91202 9.81487 3.01006C8.91336 2.1081 7.69065 1.60138 6.41572 1.60138C5.14079 1.60138 3.91808 2.1081 3.01657 3.01006C2.11505 3.91202 1.60859 5.13535 1.60859 6.41092C1.60859 7.68649 2.11505 8.90981 3.01657 9.81177C3.91808 10.7137 5.14079 11.2205 6.41572 11.2205Z" fill="#808080"/>
</svg>
