<svg width="20" height="20" viewBox="0 0 20 20" fill="none" xmlns="http://www.w3.org/2000/svg">
<path fill-rule="evenodd" clip-rule="evenodd" d="M3.33333 4.16663H16.6667C16.8877 4.16663 17.0996 4.25442 17.2559 4.4107C17.4122 4.56698 17.5 4.77895 17.5 4.99996C17.5 5.22097 17.4122 5.43293 17.2559 5.58921C17.0996 5.7455 16.8877 5.83329 16.6667 5.83329H3.33333C3.11232 5.83329 2.90036 5.7455 2.74408 5.58921C2.5878 5.43293 2.5 5.22097 2.5 4.99996C2.5 4.77895 2.5878 4.56698 2.74408 4.4107C2.90036 4.25442 3.11232 4.16663 3.33333 4.16663ZM3.33333 9.16663H16.6667C16.8877 9.16663 17.0996 9.25442 17.2559 9.4107C17.4122 9.56698 17.5 9.77895 17.5 9.99996C17.5 10.221 17.4122 10.4329 17.2559 10.5892C17.0996 10.7455 16.8877 10.8333 16.6667 10.8333H3.33333C3.11232 10.8333 2.90036 10.7455 2.74408 10.5892C2.5878 10.4329 2.5 10.221 2.5 9.99996C2.5 9.77895 2.5878 9.56698 2.74408 9.4107C2.90036 9.25442 3.11232 9.16663 3.33333 9.16663ZM3.33333 14.1666H16.6667C16.8877 14.1666 17.0996 14.2544 17.2559 14.4107C17.4122 14.567 17.5 14.7789 17.5 15C17.5 15.221 17.4122 15.4329 17.2559 15.5892C17.0996 15.7455 16.8877 15.8333 16.6667 15.8333H3.33333C3.11232 15.8333 2.90036 15.7455 2.74408 15.5892C2.5878 15.4329 2.5 15.221 2.5 15C2.5 14.7789 2.5878 14.567 2.74408 14.4107C2.90036 14.2544 3.11232 14.1666 3.33333 14.1666Z" fill="black"/>
<circle cx="6" cy="5" r="1.5" fill="black"/>
<circle cx="6" cy="15" r="1.5" fill="black"/>
<circle cx="14" cy="10" r="1.5" fill="black"/>
</svg>
