<svg width="16" height="16" viewBox="0 0 16 16" fill="none" xmlns="http://www.w3.org/2000/svg">
<path fill-rule="evenodd" clip-rule="evenodd" d="M5.58824 5.98394C5.51239 6.0844 5.41569 6.16751 5.3047 6.22762C5.1937 6.28773 5.071 6.32345 4.9449 6.33235C4.8188 6.34125 4.69225 6.32313 4.57382 6.27922C4.45538 6.23531 4.34783 6.16662 4.25844 6.07782C4.16905 5.98902 4.09991 5.88217 4.0557 5.76451C4.0115 5.64686 3.99326 5.52114 4.00222 5.39587C4.01118 5.2706 4.04713 5.14871 4.10764 5.03844C4.16815 4.92818 4.25181 4.83212 4.35294 4.75677L7.88235 1.25057C8.04729 1.08996 8.26904 1 8.5 1C8.73096 1 8.95271 1.08996 9.11765 1.25057L12.6471 4.75677C12.7482 4.83212 12.8318 4.92818 12.8924 5.03844C12.9529 5.14871 12.9888 5.2706 12.9978 5.39587C13.0067 5.52114 12.9885 5.64686 12.9443 5.76451C12.9001 5.88217 12.831 5.98902 12.7416 6.07782C12.6522 6.16662 12.5446 6.23531 12.4262 6.27922C12.3077 6.32313 12.1812 6.34125 12.0551 6.33235C11.929 6.32345 11.8063 6.28773 11.6953 6.22762C11.5843 6.16751 11.4876 6.0844 11.4118 5.98394L8.5 3.10885L5.58824 6.00147V5.98394ZM11.4118 10.0161C11.5817 9.88946 11.7919 9.828 12.0037 9.84296C12.2156 9.85792 12.4149 9.94829 12.5651 10.0975C12.7153 10.2467 12.8063 10.4447 12.8213 10.6552C12.8364 10.8656 12.7745 11.0744 12.6471 11.2432L9.11765 14.7494C8.95271 14.91 8.73096 15 8.5 15C8.26904 15 8.04729 14.91 7.88235 14.7494L4.35294 11.2432C4.2255 11.0744 4.16363 10.8656 4.17869 10.6552C4.19375 10.4447 4.28472 10.2467 4.43491 10.0975C4.58509 9.94829 4.78441 9.85792 4.99627 9.84296C5.20814 9.828 5.41832 9.88946 5.58824 10.0161L8.5 12.8999L11.4118 10.0073V10.0161Z" fill="#0066FF"/>
</svg>
